<?xml version="1.0" encoding="utf-8"?>
<!-- Generator: Adobe Illustrator 25.2.1, SVG Export Plug-In . SVG Version: 6.00 Build 0)  -->
<svg version="1.1" id="Layer_1" xmlns="http://www.w3.org/2000/svg" xmlns:xlink="http://www.w3.org/1999/xlink" x="0px" y="0px"
	 viewBox="0 0 165.6 48" style="enable-background:new 0 0 165.6 48;" xml:space="preserve">
<style type="text/css">
	.st0{fill:#4D4D4D;}
	.st1{fill:#4C4C4C;}
	.st2{fill:#808080;}
</style>
<g>
	<path d="M139.7,11h2.9v23.3h-2.9V11z"/>
	<path d="M146.7,11h8.5c7,0,10.3,4.7,10.3,11.7c0,7-3.6,11.6-10.5,11.6h-8.2L146.7,11L146.7,11z M154.9,31.7c5.5,0,7.7-3.5,7.7-9
		s-2-9.2-7.4-9.2h-5.4v18.1L154.9,31.7L154.9,31.7z"/>
</g>
<path class="st0" d="M42.5,33.6V11.2L23.1,0v8.6l7.6,4.4c0.3,0.1,0.3,0.6,0,0.8l-9,5.2c-0.3,0.1-0.6,0.1-0.8,0l-9-5.2
	c-0.3-0.1-0.3-0.6,0-0.8l7.6-4.4V0L0,11.2v22.3v-0.1v0.1l7.4-4.3v-8.7c0-0.3,0.4-0.5,0.6-0.4l9,5.2c0.3,0.1,0.4,0.4,0.4,0.8v10.4
	c0,0.3-0.4,0.5-0.6,0.4l-7.6-4.4l-7.4,4.3L21.2,48l19.3-11.2l-7.4-4.3L25.5,37c-0.3,0.2-0.6-0.1-0.6-0.4V26.2c0-0.3,0.2-0.6,0.4-0.8
	l9-5.2c0.3-0.2,0.6,0.1,0.6,0.4v8.7L42.5,33.6z"/>
<g>
	<path class="st1" d="M16.9,36.9l-7.6-4.4l-7.4,4.3l19.3,11.2V23.4L0,11.2v22.3v-0.1v0.1l7.4-4.3v-8.7c0-0.3,0.4-0.5,0.6-0.4l9,5.2
		c0.3,0.1,0.4,0.4,0.4,0.8v10.4C17.6,36.8,17.2,37,16.9,36.9z"/>
	<path d="M21.3,48l19.3-11.2l-7.4-4.3L25.6,37c-0.3,0.2-0.6-0.1-0.6-0.4V26.2c0-0.3,0.2-0.6,0.4-0.8l9-5.2c0.3-0.2,0.6,0.1,0.6,0.4
		v8.7l7.4,4.3V11.2L21.3,23.5V48z"/>
	<path class="st2" d="M23.1,0v8.6l7.6,4.4c0.3,0.1,0.3,0.6,0,0.8l-9,5.2c-0.3,0.1-0.6,0.1-0.8,0l-9-5.2c-0.3-0.1-0.3-0.6,0-0.8
		l7.6-4.4V0L0,11.2l21.3,12.3l21.3-12.3L23.1,0z"/>
</g>
<g>
	<path d="M67.1,26.3c0,2.2-1.3,3.9-3.9,3.9c-2.8,0-4-1.5-4-3.8V12.6h-5.7v13.6c0,5.4,3.2,8.6,9.6,8.6c6.4,0,9.6-3.2,9.6-8.6V12.6
		h-5.7V26.3z"/>
	<path d="M86,17.4c-2.3,0-3.9,1-5.1,2.7h-0.1v-2.2h-5v16.5H81v-9.1c0-2,1.1-3.4,2.9-3.4s2.6,1.2,2.6,2.9v9.6h5.2V23.6
		C91.8,20,89.6,17.4,86,17.4z"/>
	<rect x="94.5" y="11.4" width="5.2" height="4.3"/>
	<rect x="94.5" y="17.9" width="5.2" height="16.5"/>
	<path d="M109,12.6h-5.1v5.2h-2.2v4.3h2.2V30c0,3.5,2.2,4.5,5.2,4.5c1.4,0,2.4-0.1,2.9-0.3v-3.8c-0.2,0-0.7,0.1-1.1,0.1
		c-1.1,0-1.9-0.3-1.9-1.6v-6.8h3v-4.3h-3V12.6z"/>
	<path d="M123.1,24.9c-0.5,1.6-1,3.8-1,3.8h-0.1c0,0-0.5-2.2-1-3.8l-2.2-7h-5.6l4.9,12.7c0.7,1.7,1,2.7,1,3.4c0,1.1-0.6,1.7-2.2,1.7
		h-1.8v4.1h3.4c3.3,0,4.9-1.3,6.2-5.2l5.7-16.7h-5.2L123.1,24.9z"/>
</g>
</svg>
